<svg xmlns="http://www.w3.org/2000/svg" viewBox="0 0 128 128" width="128" height="128" fill="none">
<g stroke="#66707A" stroke-width="3.2" stroke-linecap="round" stroke-linejoin="round">
<path d="M36 34a28 28 0 0 1 56 0v3H36z"/><circle cx="64" cy="18" r="6"/>
<rect x="46" y="30.5" width="8" height="5" rx="1.2"/><rect x="60" y="30.5" width="8" height="5" rx="1.2"/><rect x="74" y="30.5" width="8" height="5" rx="1.2"/>
<rect x="34" y="37" width="60" height="7" rx="2"/>
<path d="M40 46v34c0 8 6 14 14 14h20c8 0 14-6 14-14V46"/>
<rect x="48" y="50" width="32" height="10" rx="1.5"/>
<path d="M50 66h28"/><path d="M56 73h16"/><path d="M52 80h24"/>
<path d="M30 54v32"/><path d="M22 86h16v10H22v-5"/>
<path d="M98 54v32"/><path d="M90 86h16v10H90v-5"/>
<path d="M34 48h6v10h-6v10"/><path d="M94 48h-6v10h6v10"/>
</g>
<text x="64" y="112" text-anchor="middle" font-family="Arial, Helvetica, sans-serif" font-size="16" font-weight="700" fill="#66707A" letter-spacing="1">R2D2</text>
</svg>